<mxfile host="app.diagrams.net" agent="Mozilla/5.0 (Windows NT 10.0; Win64; x64) AppleWebKit/537.36 (KHTML, like Gecko) Chrome/141.0.0.0 Safari/537.36 Edg/141.0.0.0" version="28.2.5">
  <diagram name="PÃ¡gina-1" id="ybxMegu20QLMTT6GTvBc">
    <mxGraphModel dx="591" dy="-383" grid="1" gridSize="10" guides="1" tooltips="1" connect="1" arrows="1" fold="1" page="1" pageScale="1" pageWidth="827" pageHeight="1169" math="0" shadow="0">
      <root>
        <mxCell id="0" />
        <mxCell id="1" parent="0" />
        <mxCell id="Gb_D7QVCogXqmU0bzWKU-58" value="" style="edgeStyle=orthogonalEdgeStyle;rounded=0;orthogonalLoop=1;jettySize=auto;html=1;" edge="1" parent="1" source="Gb_D7QVCogXqmU0bzWKU-59" target="Gb_D7QVCogXqmU0bzWKU-62">
          <mxGeometry relative="1" as="geometry" />
        </mxCell>
        <mxCell id="Gb_D7QVCogXqmU0bzWKU-59" value="inicio" style="ellipse;whiteSpace=wrap;html=1;" vertex="1" parent="1">
          <mxGeometry x="1274" y="1660" width="120" height="80" as="geometry" />
        </mxCell>
        <mxCell id="Gb_D7QVCogXqmU0bzWKU-60" value="fim" style="ellipse;whiteSpace=wrap;html=1;" vertex="1" parent="1">
          <mxGeometry x="1274" y="2330" width="120" height="80" as="geometry" />
        </mxCell>
        <mxCell id="Gb_D7QVCogXqmU0bzWKU-61" value="" style="edgeStyle=orthogonalEdgeStyle;rounded=0;orthogonalLoop=1;jettySize=auto;html=1;" edge="1" parent="1" source="Gb_D7QVCogXqmU0bzWKU-62" target="Gb_D7QVCogXqmU0bzWKU-67">
          <mxGeometry relative="1" as="geometry" />
        </mxCell>
        <mxCell id="Gb_D7QVCogXqmU0bzWKU-62" value="ler n1,n2,n3" style="shape=parallelogram;perimeter=parallelogramPerimeter;whiteSpace=wrap;html=1;fixedSize=1;" vertex="1" parent="1">
          <mxGeometry x="1274" y="1780" width="120" height="60" as="geometry" />
        </mxCell>
        <mxCell id="Gb_D7QVCogXqmU0bzWKU-63" value="" style="edgeStyle=orthogonalEdgeStyle;rounded=0;orthogonalLoop=1;jettySize=auto;html=1;" edge="1" parent="1" source="Gb_D7QVCogXqmU0bzWKU-67" target="Gb_D7QVCogXqmU0bzWKU-76">
          <mxGeometry relative="1" as="geometry" />
        </mxCell>
        <mxCell id="Gb_D7QVCogXqmU0bzWKU-64" value="SIM" style="edgeLabel;html=1;align=center;verticalAlign=middle;resizable=0;points=[];" vertex="1" connectable="0" parent="Gb_D7QVCogXqmU0bzWKU-63">
          <mxGeometry x="-0.0444" y="-1" relative="1" as="geometry">
            <mxPoint as="offset" />
          </mxGeometry>
        </mxCell>
        <mxCell id="Gb_D7QVCogXqmU0bzWKU-65" value="" style="edgeStyle=orthogonalEdgeStyle;rounded=0;orthogonalLoop=1;jettySize=auto;html=1;" edge="1" parent="1" source="Gb_D7QVCogXqmU0bzWKU-67" target="Gb_D7QVCogXqmU0bzWKU-72">
          <mxGeometry relative="1" as="geometry" />
        </mxCell>
        <mxCell id="Gb_D7QVCogXqmU0bzWKU-66" value="NAO" style="edgeLabel;html=1;align=center;verticalAlign=middle;resizable=0;points=[];" vertex="1" connectable="0" parent="Gb_D7QVCogXqmU0bzWKU-65">
          <mxGeometry x="-0.2857" y="-4" relative="1" as="geometry">
            <mxPoint as="offset" />
          </mxGeometry>
        </mxCell>
        <mxCell id="Gb_D7QVCogXqmU0bzWKU-67" value="se N1 &amp;gt;= N2 &amp;amp;&amp;amp; N1 &amp;gt;= N3" style="rhombus;whiteSpace=wrap;html=1;" vertex="1" parent="1">
          <mxGeometry x="950" y="1900" width="346" height="80" as="geometry" />
        </mxCell>
        <mxCell id="Gb_D7QVCogXqmU0bzWKU-68" style="edgeStyle=orthogonalEdgeStyle;rounded=0;orthogonalLoop=1;jettySize=auto;html=1;entryX=1;entryY=0.5;entryDx=0;entryDy=0;" edge="1" parent="1" source="Gb_D7QVCogXqmU0bzWKU-72" target="Gb_D7QVCogXqmU0bzWKU-78">
          <mxGeometry relative="1" as="geometry" />
        </mxCell>
        <mxCell id="Gb_D7QVCogXqmU0bzWKU-69" value="Sim" style="edgeLabel;html=1;align=center;verticalAlign=middle;resizable=0;points=[];" vertex="1" connectable="0" parent="Gb_D7QVCogXqmU0bzWKU-68">
          <mxGeometry x="0.1493" y="-1" relative="1" as="geometry">
            <mxPoint as="offset" />
          </mxGeometry>
        </mxCell>
        <mxCell id="Gb_D7QVCogXqmU0bzWKU-70" style="edgeStyle=orthogonalEdgeStyle;rounded=0;orthogonalLoop=1;jettySize=auto;html=1;entryX=0;entryY=0.5;entryDx=0;entryDy=0;" edge="1" parent="1" source="Gb_D7QVCogXqmU0bzWKU-72" target="Gb_D7QVCogXqmU0bzWKU-74">
          <mxGeometry relative="1" as="geometry">
            <Array as="points">
              <mxPoint x="1670" y="2080" />
              <mxPoint x="1570" y="2080" />
              <mxPoint x="1570" y="2170" />
            </Array>
          </mxGeometry>
        </mxCell>
        <mxCell id="Gb_D7QVCogXqmU0bzWKU-71" value="Nao" style="edgeLabel;html=1;align=center;verticalAlign=middle;resizable=0;points=[];" vertex="1" connectable="0" parent="Gb_D7QVCogXqmU0bzWKU-70">
          <mxGeometry x="0.6295" y="-4" relative="1" as="geometry">
            <mxPoint as="offset" />
          </mxGeometry>
        </mxCell>
        <mxCell id="Gb_D7QVCogXqmU0bzWKU-72" value="se N2 &amp;gt;= N1 &amp;amp;&amp;amp; N2 &amp;gt;= N3" style="rhombus;whiteSpace=wrap;html=1;" vertex="1" parent="1">
          <mxGeometry x="1360" y="1940" width="316" height="80" as="geometry" />
        </mxCell>
        <mxCell id="Gb_D7QVCogXqmU0bzWKU-73" style="edgeStyle=orthogonalEdgeStyle;rounded=0;orthogonalLoop=1;jettySize=auto;html=1;entryX=1;entryY=0.5;entryDx=0;entryDy=0;" edge="1" parent="1" source="Gb_D7QVCogXqmU0bzWKU-74" target="Gb_D7QVCogXqmU0bzWKU-80">
          <mxGeometry relative="1" as="geometry" />
        </mxCell>
        <mxCell id="Gb_D7QVCogXqmU0bzWKU-74" value="Maior = N3" style="rounded=0;whiteSpace=wrap;html=1;" vertex="1" parent="1">
          <mxGeometry x="1600" y="2140" width="120" height="60" as="geometry" />
        </mxCell>
        <mxCell id="Gb_D7QVCogXqmU0bzWKU-75" style="edgeStyle=orthogonalEdgeStyle;rounded=0;orthogonalLoop=1;jettySize=auto;html=1;entryX=0;entryY=0.5;entryDx=0;entryDy=0;" edge="1" parent="1" source="Gb_D7QVCogXqmU0bzWKU-76" target="Gb_D7QVCogXqmU0bzWKU-80">
          <mxGeometry relative="1" as="geometry" />
        </mxCell>
        <mxCell id="Gb_D7QVCogXqmU0bzWKU-76" value="Maior = N1" style="rounded=0;whiteSpace=wrap;html=1;" vertex="1" parent="1">
          <mxGeometry x="1063" y="2120" width="120" height="60" as="geometry" />
        </mxCell>
        <mxCell id="Gb_D7QVCogXqmU0bzWKU-77" style="edgeStyle=orthogonalEdgeStyle;rounded=0;orthogonalLoop=1;jettySize=auto;html=1;entryX=0.5;entryY=0;entryDx=0;entryDy=0;" edge="1" parent="1" source="Gb_D7QVCogXqmU0bzWKU-78" target="Gb_D7QVCogXqmU0bzWKU-80">
          <mxGeometry relative="1" as="geometry" />
        </mxCell>
        <mxCell id="Gb_D7QVCogXqmU0bzWKU-78" value="Maior = N2" style="rounded=0;whiteSpace=wrap;html=1;" vertex="1" parent="1">
          <mxGeometry x="1334" y="2060" width="120" height="60" as="geometry" />
        </mxCell>
        <mxCell id="Gb_D7QVCogXqmU0bzWKU-79" value="" style="edgeStyle=orthogonalEdgeStyle;rounded=0;orthogonalLoop=1;jettySize=auto;html=1;" edge="1" parent="1" source="Gb_D7QVCogXqmU0bzWKU-80" target="Gb_D7QVCogXqmU0bzWKU-60">
          <mxGeometry relative="1" as="geometry" />
        </mxCell>
        <mxCell id="Gb_D7QVCogXqmU0bzWKU-80" value="" style="ellipse;whiteSpace=wrap;html=1;aspect=fixed;" vertex="1" parent="1">
          <mxGeometry x="1320" y="2225" width="10" height="10" as="geometry" />
        </mxCell>
      </root>
    </mxGraphModel>
  </diagram>
</mxfile>
